HIERARCHY
ROOT Hips
{
	OFFSET 0.00000 0.00000 0.00000
	CHANNELS 6 Xposition Yposition Zposition Zrotation Yrotation Xrotation 
	JOINT LHipJoint
	{
		OFFSET 0 0 0
		CHANNELS 3 Zrotation Yrotation Xrotation
		JOINT LeftUpLeg
		{
			OFFSET 1.75344 -1.53157 0.77399
			CHANNELS 3 Zrotation Yrotation Xrotation
			JOINT LeftLeg
			{
				OFFSET 2.25415 -6.19323 0.00000
				CHANNELS 3 Zrotation Yrotation Xrotation
				JOINT LeftFoot
				{
					OFFSET 2.30342 -6.32861 0.00000
					CHANNELS 3 Zrotation Yrotation Xrotation
					JOINT LeftToeBase
					{
						OFFSET 0.10958 -0.30108 1.49206
						CHANNELS 3 Zrotation Yrotation Xrotation
						End Site
						{
							OFFSET 0.00000 -0.00000 0.77783
						}
					}
				}
			}
		}
	}
	JOINT RHipJoint
	{
		OFFSET 0 0 0
		CHANNELS 3 Zrotation Yrotation Xrotation
		JOINT RightUpLeg
		{
			OFFSET -1.81912 -1.53156 0.77399
			CHANNELS 3 Zrotation Yrotation Xrotation
			JOINT RightLeg
			{
				OFFSET -2.22882 -6.12365 0.00000
				CHANNELS 3 Zrotation Yrotation Xrotation
				JOINT RightFoot
				{
					OFFSET -2.21943 -6.09785 0.00000
					CHANNELS 3 Zrotation Yrotation Xrotation
					JOINT RightToeBase
					{
						OFFSET -0.18931 -0.52012 1.59379
						CHANNELS 3 Zrotation Yrotation Xrotation
						End Site
						{
							OFFSET -0.00000 -0.00000 0.84686
						}
					}
				}
			}
		}
	}
	JOINT LowerBack
	{
		OFFSET 0 0 0
		CHANNELS 3 Zrotation Yrotation Xrotation
		JOINT Spine
		{
			OFFSET -0.00200 1.66634 -0.14248
			CHANNELS 3 Zrotation Yrotation Xrotation
			JOINT Spine1
			{
				OFFSET -0.00875 1.64542 0.09514
				CHANNELS 3 Zrotation Yrotation Xrotation
				JOINT Neck
				{
					OFFSET 0 0 0
					CHANNELS 3 Zrotation Yrotation Xrotation
					JOINT Neck1
					{
						OFFSET 0.02257 1.59605 0.00839
						CHANNELS 3 Zrotation Yrotation Xrotation
						JOINT Head
						{
							OFFSET -0.10214 1.57530 -0.23335
							CHANNELS 3 Zrotation Yrotation Xrotation
							End Site
							{
								OFFSET -0.03588 1.60717 -0.08062
							}
						}
					}
				}
				JOINT LeftShoulder
				{
					OFFSET 0 0 0
					CHANNELS 3 Zrotation Yrotation Xrotation
					JOINT LeftArm
					{
						OFFSET 2.54983 1.10186 0.40078
						CHANNELS 3 Zrotation Yrotation Xrotation
						JOINT LeftForeArm
						{
							OFFSET 4.28840 -0.00000 0.00000
							CHANNELS 3 Zrotation Yrotation Xrotation
							JOINT LeftHand
							{
								OFFSET 3.06552 -0.00000 -0.00000
								CHANNELS 3 Zrotation Yrotation Xrotation
								JOINT LeftFingerBase
								{
									OFFSET 0 0 0
									CHANNELS 3 Zrotation Yrotation Xrotation
									JOINT LeftHandIndex1
									{
										OFFSET 0.75304 -0.00000 0.00000
										CHANNELS 3 Zrotation Yrotation Xrotation
										End Site
										{
											OFFSET 0.60712 -0.00000 0.00000
										}
									}
								}
								JOINT LThumb
								{
									OFFSET 0 0 0
									CHANNELS 3 Zrotation Yrotation Xrotation
									End Site
									{
										OFFSET 0.61639 -0.00000 0.61639
									}
								}
							}
						}
					}
				}
				JOINT RightShoulder
				{
					OFFSET 0 0 0
					CHANNELS 3 Zrotation Yrotation Xrotation
					JOINT RightArm
					{
						OFFSET -2.60909 1.35448 0.21802
						CHANNELS 3 Zrotation Yrotation Xrotation
						JOINT RightForeArm
						{
							OFFSET -4.52172 -0.00000 -0.00000
							CHANNELS 3 Zrotation Yrotation Xrotation
							JOINT RightHand
							{
								OFFSET -2.89140 -0.00000 0.00000
								CHANNELS 3 Zrotation Yrotation Xrotation
								JOINT RightFingerBase
								{
									OFFSET 0 0 0
									CHANNELS 3 Zrotation Yrotation Xrotation
									JOINT RightHandIndex1
									{
										OFFSET -0.68054 -0.00000 0.00000
										CHANNELS 3 Zrotation Yrotation Xrotation
										End Site
										{
											OFFSET -0.54867 -0.00000 0.00000
										}
									}
								}
								JOINT RThumb
								{
									OFFSET 0 0 0
									CHANNELS 3 Zrotation Yrotation Xrotation
									End Site
									{
										OFFSET -0.55705 -0.00000 0.55705
									}
								}
							}
						}
					}
				}
			}
		}
	}
}
MOTION
Frames: 13
Frame Time: .0083333
7.9831 14.9733 42.3657 0 0 0 0 0 0 -21 0 0 0 0 0 0 0 0 0 0 0 0 0 0 21 0 0 0 0 0 0 0 0 0 0 0 0 0 0 0 0 0 0 0 0 0 0 -16 0 0 21 0 0 11 0 0 0 -8 0 0 0 0 0 0 0 0 0 0 0 0 0 0 0 0 0 0 0 0 8 0 0 0 0 0 0 0 0 0 0 0 0 0 0 0 0 0
7.9831 14.9733 42.3657 177.1750 12.5398 179.5370 0.0000 0.0000 0.0000 -28.4570 -14.0873 -4.4282 2.5875 9.9952 28.9612 2.2912 9.5956 -33.3010 1.2474 -7.0814 -19.9566 0.0000 0.0000 0.0000 18.1858 14.8672 -11.8211 -4.1830 -12.4001 37.1624 -1.7941 -4.2947 -27.1440 -0.2956 3.4959 -9.6625 -5.4465 -1.2486 6.7858 -4.7077 -1.9689 0.0378 -1.6440 -0.7873 -3.7474 3.6071 5.4616 -2.8467 -3.7923 8.2582 13.6614 -1.3055 4.2479 4.8720 -0.0000 -0.0000 0.0000 -81.7430 12.8420 7.8682 20.8001 -31.5942 -5.9449 -0.0000 -0.0000 21.0027 15.1431 -32.0710 -8.1772 -7.1250 0.0000 -0.0000 -9.3693 -2.6195 9.9189 -0.0000 -0.0000 0.0000 81.3782 -16.8545 51.2217 -26.8099 37.9973 -9.3819 0.0000 0.0000 3.5236 -50.3003 -56.7549 45.2107 7.1250 -0.0000 -0.0000 -178.8874 -7.2636 0.9632
7.9770 14.9669 42.3565 177.1790 12.8121 179.3580 0.0000 0.0000 0.0000 -28.5003 -13.7463 -4.3470 2.6002 10.0178 29.0345 2.2827 9.6953 -33.3157 1.5313 -7.8127 -22.1465 0.0000 0.0000 0.0000 18.2521 15.1246 -11.6342 -4.2450 -12.4795 37.4502 -1.8272 -4.2644 -27.3566 -0.2591 3.2749 -9.0452 -5.4703 -1.2452 6.5845 -4.7013 -1.9301 0.2403 -1.6315 -0.7739 -3.4221 3.8273 5.4956 -2.9386 -4.1524 8.3355 13.6806 -1.4424 4.2739 4.9204 0.0000 0.0000 0.0000 -81.6011 12.2830 7.8031 20.6817 -31.4549 -5.8829 -0.0000 -0.0000 20.7061 13.7090 -33.4230 -7.6528 -7.1250 0.0000 -0.0000 -10.3081 -3.7198 11.1320 0.0000 0.0000 0.0000 81.3309 -16.6159 50.1820 -26.7121 37.9033 -9.3217 0.0000 0.0000 6.5392 -44.9161 -58.2412 40.2908 7.1250 -0.0000 -0.0000 -176.7390 -6.3413 2.8857
7.9701 14.9630 42.3524 177.1290 13.0645 179.1760 0.0000 0.0000 0.0000 -28.5718 -13.3339 -4.3474 2.6106 10.0363 29.0943 2.2609 9.7574 -33.2303 1.6055 -7.9910 -22.6866 0.0000 0.0000 0.0000 18.1629 14.8886 -11.7143 -4.2983 -12.5471 37.6961 -1.8375 -3.7944 -27.1978 -0.2065 2.9255 -8.0715 -5.5764 -1.2728 6.7495 -4.6669 -1.9918 0.2208 -1.5280 -0.8010 -3.5296 3.8811 5.5528 -2.9266 -4.3516 8.4734 13.9026 -1.4998 4.3397 5.0031 -0.0000 -0.0000 0.0000 -81.6671 12.1423 7.3363 20.4716 -31.2064 -5.7737 -0.0000 -0.0000 21.2657 14.1344 -33.3941 -7.8910 -7.1250 0.0000 -0.0000 -10.0696 -3.7614 10.8733 -0.0000 -0.0000 0.0000 81.2198 -16.5866 49.2261 -26.5101 37.7079 -9.1979 0.0000 0.0000 9.6140 -38.2182 -58.9298 33.9984 7.1250 -0.0000 -0.0000 -174.5645 -4.7450 4.9902
7.9624 14.9622 42.3517 177.1720 13.2885 179.2230 0.0000 0.0000 0.0000 -28.4919 -13.0909 -4.5785 2.6278 10.0667 29.1930 2.2217 9.8550 -33.0675 1.7317 -8.2832 -23.5777 0.0000 0.0000 0.0000 18.1291 14.7387 -12.0135 -4.3441 -12.6048 37.9064 -1.8219 -3.5131 -26.9575 -0.1888 2.7987 -7.7187 -5.5286 -1.3198 6.6935 -4.6406 -2.0544 0.1720 -1.5220 -0.8345 -3.5491 3.9756 5.6065 -2.9192 -4.5797 8.6086 14.1207 -1.5726 4.4043 5.0887 0.0000 0.0000 0.0000 -81.6767 12.0493 6.9395 20.3276 -31.0350 -5.6993 -0.0000 -0.0000 21.5614 14.4427 -33.4131 -8.0722 -7.1250 0.0000 -0.0000 -9.9008 -3.8318 10.6970 0.0000 0.0000 0.0000 81.2098 -16.5444 48.1878 -26.4018 37.6027 -9.1317 0.0000 0.0000 12.5320 -31.3789 -60.3303 27.9207 7.1250 -0.0000 -0.0000 -172.0656 -4.2552 7.3965
7.9528 14.9638 42.3494 177.3040 13.4829 179.2960 0.0000 0.0000 0.0000 -28.3606 -12.9841 -4.7308 2.6477 10.1017 29.3067 2.2180 9.9999 -33.1405 1.7890 -8.4119 -23.9723 0.0000 0.0000 0.0000 18.2144 14.7285 -12.2217 -4.3853 -12.6562 38.0947 -1.7899 -3.3274 -26.6486 -0.1603 2.5800 -7.1115 -5.2999 -1.3910 6.6291 -4.6103 -2.1433 0.0785 -1.6098 -0.8853 -3.6170 4.0929 5.6373 -2.7249 -4.9086 8.7296 14.2288 -1.6888 4.4628 5.1137 0.0000 0.0000 0.0000 -81.7153 12.2452 5.9594 19.2190 -29.6899 -5.1389 -0.0000 -0.0000 26.2728 23.8127 -34.7944 -14.1349 -7.1250 0.0000 -0.0000 -4.9495 -7.1142 5.5440 0.0000 0.0000 0.0000 81.1645 -16.5081 46.6867 -26.2811 37.4849 -9.0582 0.0000 0.0000 16.8082 -21.0334 -60.3886 18.4854 7.1250 -0.0000 -0.0000 -168.9049 -2.4848 10.8110
7.9429 14.9624 42.3506 177.4580 13.6129 179.3070 0.0000 0.0000 0.0000 -28.2156 -12.8548 -4.8191 2.6664 10.1343 29.4127 2.2344 10.0429 -33.2628 1.7898 -8.4138 -23.9783 0.0000 0.0000 0.0000 18.3510 14.7064 -12.4025 -4.4283 -12.7096 38.2908 -1.7475 -3.3638 -26.3683 -0.1826 2.7519 -7.5889 -5.0304 -1.4669 6.6839 -4.6047 -2.2407 0.0196 -1.7431 -0.9398 -3.7188 4.3388 5.6469 -2.5557 -5.3035 8.8169 14.3133 -1.8476 4.5060 5.1429 0.0000 -0.0000 0.0000 -81.7296 12.3557 6.5535 20.7135 -31.4924 -5.8995 -0.0000 -0.0000 20.9597 15.5371 -31.9668 -8.3734 -7.1250 0.0000 -0.0000 -9.1363 -2.5826 9.6602 0.0000 -0.0000 0.0000 81.1813 -16.3291 45.0905 -26.0688 37.2766 -8.9293 0.0000 0.0000 21.2842 -9.6599 -59.5141 8.3447 7.1250 -0.0000 -0.0000 -14.6359 3.0820 -165.6901
7.9345 14.9586 42.3558 177.4400 13.7003 179.3750 0.0000 0.0000 0.0000 -28.1926 -12.6797 -5.0236 2.6632 10.1288 29.3949 2.2373 9.8299 -33.1415 1.7629 -8.3536 -23.7934 0.0000 0.0000 0.0000 18.2811 14.7360 -12.7357 -4.4864 -12.7809 38.5538 -1.7377 -3.3825 -26.3072 -0.2428 3.1708 -8.7547 -4.9419 -1.5199 6.6089 -4.6803 -2.2954 0.0374 -1.8677 -0.9683 -3.6644 4.6548 5.6395 -2.5808 -5.6629 8.8476 14.3768 -2.0045 4.5177 5.1974 0.0000 0.0000 0.0000 -81.6263 12.3754 6.5428 20.8028 -31.5974 -5.9463 -0.0000 -0.0000 21.2495 14.4865 -31.6114 -7.7123 -7.1250 0.0000 -0.0000 -9.6941 -2.0544 10.1803 0.0000 0.0000 0.0000 81.3054 -16.2604 45.5593 -25.4579 36.6683 -8.5619 0.0000 0.0000 18.0804 -17.7706 -53.0531 14.3669 7.1250 -0.0000 -0.0000 -10.9322 7.1287 -170.3267
7.9271 14.9529 42.3484 177.2410 13.9067 179.2640 0.0000 0.0000 0.0000 -28.4285 -12.3795 -5.0508 2.6689 10.1388 29.4272 2.2561 9.6730 -33.1489 1.7376 -8.2966 -23.6187 0.0000 0.0000 0.0000 18.0288 14.7593 -12.8215 -4.5476 -12.8554 38.8297 -1.7810 -2.7908 -26.3438 -0.1796 2.7296 -7.5268 -5.0250 -1.5256 6.4382 -4.7933 -2.2779 0.1448 -1.9453 -0.9574 -3.4577 4.8336 5.6576 -2.5146 -5.9259 8.8830 14.2233 -2.1162 4.5288 5.1598 0.0000 -0.0000 0.0000 -81.4650 12.1904 6.6296 20.7741 -31.5637 -5.9313 -0.0000 -0.0000 21.0098 11.5097 -31.0760 -6.0002 -7.1250 0.0000 -0.0000 -11.3366 -1.0722 11.7781 0.0000 -0.0000 0.0000 81.4695 -16.1608 45.2597 -25.5108 36.7215 -8.5935 0.0000 0.0000 18.3539 -16.1803 -54.4969 13.2902 7.1250 -0.0000 -0.0000 -11.7556 6.2035 -169.3515
7.9204 14.9437 42.3228 176.7710 14.2549 178.7110 0.0000 0.0000 0.0000 -29.1084 -11.8611 -4.4831 2.6501 10.1058 29.3200 2.2850 9.8317 -33.4154 1.7571 -8.3408 -23.7540 0.0000 0.0000 0.0000 17.5588 14.6313 -12.4740 -4.6293 -12.9538 39.1957 -1.8198 -2.1418 -26.3372 -0.1041 2.0804 -5.7278 -5.3556 -1.5081 6.5113 -4.9505 -2.2590 0.2510 -1.9267 -0.9355 -3.3810 4.8851 5.7237 -2.3210 -6.0709 9.0004 14.1436 -2.1690 4.5878 5.1177 0.0000 0.0000 0.0000 -81.4850 12.1446 6.3726 20.6473 -31.4143 -5.8650 -0.0000 -0.0000 20.8957 10.1674 -30.4007 -5.1857 -7.1250 0.0000 -0.0000 -12.0556 -0.2253 12.3797 0.0000 0.0000 0.0000 81.4821 -16.2475 45.1776 -25.5853 36.7963 -8.6381 0.0000 0.0000 18.6515 -15.4335 -55.7134 12.8494 7.1250 -0.0000 -0.0000 -12.1978 5.2711 -168.7098
7.9114 14.9381 42.3321 177.0020 14.5041 178.7490 0.0000 0.0000 0.0000 -28.8325 -11.6826 -4.5943 2.6401 10.0883 29.2630 2.2917 9.7384 -33.3941 1.6749 -8.1532 -23.1804 0.0000 0.0000 0.0000 17.8007 14.8439 -12.7101 -4.7022 -13.0403 39.5197 -1.7657 -2.2456 -25.9997 -0.0978 2.0171 -5.5530 -5.1083 -1.5769 6.7162 -4.8881 -2.3701 0.1501 -1.9836 -0.9959 -3.6090 4.9057 5.8365 -2.2410 -6.1181 9.1908 14.2690 -2.1751 4.6857 5.1571 0.0000 0.0000 0.0000 -81.5997 12.1736 5.7784 20.5657 -31.3179 -5.8225 -0.0000 -0.0000 20.8978 9.9826 -30.1362 -5.0501 -7.1250 0.0000 -0.0000 -12.1455 0.0580 12.4155 0.0000 0.0000 0.0000 81.4742 -16.1819 45.2989 -25.5122 36.7229 -8.5943 0.0000 0.0000 18.4771 -16.4813 -54.0315 13.4659 7.1250 -0.0000 -0.0000 -11.5771 6.5562 -169.6006
7.9068 14.9308 42.3241 176.6020 14.5146 178.4270 0.0000 0.0000 0.0000 -29.2899 -11.3515 -4.3828 2.6289 10.0686 29.1993 2.3065 9.4495 -33.2966 1.5985 -7.9743 -22.6360 0.0000 0.0000 0.0000 17.3839 14.5663 -12.7254 -4.7758 -13.1268 39.8449 -1.7836 -2.0985 -26.0654 -0.1164 2.2000 -6.0587 -5.4345 -1.6806 6.8195 -5.0079 -2.5275 0.1641 -1.9105 -1.0605 -3.6431 4.9305 5.9310 -2.0948 -6.1410 9.3528 14.3587 -2.1792 4.7733 5.1717 -0.0000 -0.0000 0.0000 -81.6742 12.3186 5.3427 20.5878 -31.3440 -5.8340 -0.0000 -0.0000 20.8239 10.1999 -30.1001 -5.1562 -7.1250 0.0000 -0.0000 -12.0189 0.0649 12.2786 -0.0000 -0.0000 0.0000 81.4141 -16.2283 45.4580 -25.5557 36.7666 -8.6203 0.0000 0.0000 18.0397 -17.5265 -52.3841 14.0447 7.1250 -0.0000 -0.0000 -10.9354 7.8088 -170.4720
7.9021 14.9249 42.3191 176.5540 14.6603 178.2780 0.0000 0.0000 0.0000 -29.3475 -11.0543 -4.3422 2.6366 10.0821 29.2430 2.3199 9.3586 -33.3161 1.6263 -8.0399 -22.8353 0.0000 0.0000 0.0000 17.3515 14.4457 -12.8108 -4.8365 -13.1972 40.1113 -1.8120 -1.9445 -26.2020 -0.1131 2.1685 -5.9717 -5.5528 -1.7522 6.9113 -4.9221 -2.6452 0.1496 -1.7413 -1.1176 -3.6998 4.9497 6.0366 -1.9870 -6.3836 9.5491 14.3497 -2.2478 4.8634 5.1745 -0.0000 -0.0000 0.0000 -81.9169 12.4267 4.9104 20.6676 -31.4383 -5.8756 -0.0000 -0.0000 20.6868 10.7643 -29.7110 -5.3828 -7.1250 0.0000 -0.0000 -11.6711 0.3722 11.8439 -0.0000 -0.0000 0.0000 81.1176 -16.2847 45.6688 -25.7250 36.9359 -8.7219 0.0000 0.0000 17.9137 -17.8048 -52.3940 14.2748 7.1250 -0.0000 -0.0000 -10.8232 7.7277 -170.5559
